<?xml version="1.0" encoding="UTF-8" standalone="no"?>
<!-- Created with Inkscape (http://www.inkscape.org/) -->

<svg
   width="3.2911668mm"
   height="3.8184445mm"
   viewBox="0 0 3.2911668 3.8184445"
   version="1.1"
   id="svg5"
   xml:space="preserve"
   xmlns="http://www.w3.org/2000/svg"
   xmlns:svg="http://www.w3.org/2000/svg"><defs
     id="defs2" /><g
     id="layer1"
     transform="translate(-110.46823,-70.679596)"><g
       id="g3"
       transform="matrix(0,-1,0.78382263,0,96.64422,188.67)"><g
         id="g2"><path
           style="fill:#ffc1c8;fill-opacity:1;stroke:#ff3a4d;stroke-width:2.18713;stroke-dasharray:none;stroke-opacity:1"
           id="path2"
           d="m 128.7859,63.89965 -3.00863,-5.21111 -3.00864,-5.211109 6.01727,0 6.01728,-1e-6 -3.00864,5.21111 z"
           transform="matrix(0.51202496,0,0,0.58342585,66.30777,30.291705)" /><path
           id="path9"
           style="fill:#ffc1c8;stroke:#ff3a4d;stroke-width:1.85577;stroke-dasharray:none"
           d="m 128.71969,45.495203 2.09292,-4.925641 5.04275,0.02819 1.90368,4.9383 -2.6482,6.209136 -3.9966,-0.01266 z" /><path
           id="path1"
           style="fill:#ffc1c8;stroke:#ff3a4d;stroke-width:1.1954;stroke-dasharray:none"
           d="m 132.27285,31.723535 -2.37243,-4.948387 -2.37245,-4.948386 4.74488,3.860073 4.74485,-3.860074 -2.37241,4.948387 z" /><path
           style="fill:#e5e5e5;stroke:none;stroke-width:1.1954"
           id="path41"
           d="m 139.09115,9.9308609 0,-12.9550017 11.21936,6.4775009 z"
           transform="matrix(0,0.37425169,-0.29474637,0,117.09905,-34.418437)" /><rect
           style="fill:#e5e5e5;stroke:none;stroke-width:1.1954"
           id="rect43"
           width="1.1588004"
           height="3.8184397"
           x="10.055696"
           y="-117.99041"
           transform="rotate(90)" /><rect
           style="fill:#e5e5e5;stroke:none;stroke-width:1.1954"
           id="rect44"
           width="1.1588004"
           height="3.8184397"
           x="13.095757"
           y="-117.9904"
           transform="rotate(90)" /><path
           style="opacity:1;fill:#e5e5e5;stroke:none;stroke-width:1.1954"
           id="path45"
           d="m 139.09115,9.9308609 0,-12.9550017 11.21936,6.4775009 z"
           transform="matrix(0,0.24333859,-0.29474637,0,117.09905,-9.3996293)" /><path
           style="opacity:1;fill:#e5e5e5;stroke:none;stroke-width:1.1954"
           id="path47"
           d="m 139.09115,9.9308609 0,-12.9550017 11.21936,6.4775009 z"
           transform="matrix(0,0.24333859,-0.29474637,0,117.09905,-7.9308677)" /></g></g></g></svg>
