<?xml version="1.0" encoding="UTF-8" standalone="no"?>
<!-- Created with Inkscape (http://www.inkscape.org/) -->

<svg
   width="13.229166mm"
   height="13.229167mm"
   viewBox="0 0 13.229166 13.229167"
   version="1.1"
   id="svg5"
   xml:space="preserve"
   xmlns:xlink="http://www.w3.org/1999/xlink"
   xmlns="http://www.w3.org/2000/svg"
   xmlns:svg="http://www.w3.org/2000/svg"><defs
     id="defs2" /><g
     id="layer1"
     transform="translate(-144.1979,-61.68099)"><g
       id="g12554"
       transform="translate(0,2.1497395)"><g
         id="g12524"><g
           id="g12512"><path
             id="path12502"
             style="opacity:1;fill:#bfbfbf;fill-opacity:1;stroke-width:0.250001;paint-order:markers fill stroke"
             d="m 144.72708,59.53125 -0.52916,0.529167 V 72.23125 l 0.52916,0.529167 h 12.17084 l 0.52916,-0.529167 V 60.060417 l -0.52916,-0.529167 z m 0.26459,0.79375 h 11.64166 v 11.641667 h -11.64166 z" /><path
             style="opacity:1;fill:#bfbfbf;fill-opacity:1;stroke:#388e61;stroke-width:0.529167;stroke-dasharray:none;stroke-opacity:1;paint-order:markers fill stroke"
             id="path12504"
             width="8.4666672"
             height="8.4666672"
             x="146.57918"
             y="61.912498"
             d="m 147.63751,61.912498 6.35,0 1.05834,1.058334 v 6.35 l -1.05834,1.058334 h -6.35 l -1.05833,-1.058334 0,-6.35 z" /></g><g
           id="g12522"
           transform="rotate(-90,149.09271,64.426043)"
           style="display:inline"><rect
             style="opacity:1;fill:#4d4d4d;fill-opacity:1;stroke:none;stroke-width:0.250001;stroke-opacity:1;paint-order:markers fill stroke"
             id="rect12520"
             width="3.7041509"
             height="1.3229055"
             x="147.37257"
             y="-60.854603"
             transform="matrix(1,-2.9601238e-6,-5.8018913e-6,-1,0,0)" /><rect
             style="opacity:1;fill:#4d4d4d;fill-opacity:1;stroke:none;stroke-width:0.250001;stroke-opacity:1;paint-order:markers fill stroke"
             id="rect2469"
             width="3.7041509"
             height="1.3229055"
             x="-66.146721"
             y="-153.9873"
             transform="matrix(-2.9601238e-6,-1,-1,5.8018913e-6,0,0)" /><rect
             style="opacity:1;fill:#e5e5e5;fill-opacity:1;stroke:none;stroke-width:0.529167;stroke-dasharray:none;stroke-opacity:1;paint-order:markers fill stroke"
             id="rect6757"
             width="1.0583313"
             height="5.7648959"
             x="150.23204"
             y="-64.282028"
             transform="rotate(45)" /></g><use
           x="0"
           y="0"
           xlink:href="#g12522"
           id="use1576"
           transform="matrix(-1,0,0,1,301.625,0)" /><use
           x="0"
           y="0"
           xlink:href="#g12522"
           id="use1578"
           transform="matrix(1,0,0,-1,0,132.29167)" /><use
           x="0"
           y="0"
           xlink:href="#use1576"
           id="use1580"
           transform="matrix(1,0,0,-1,0,132.29167)" /></g></g></g></svg>
